<?xml version="1.0" standalone="no"?>
<!DOCTYPE svg PUBLIC "-//W3C//DTD SVG 20010904//EN"
 "http://www.w3.org/TR/2001/REC-SVG-20010904/DTD/svg10.dtd">
<svg version="1.0" xmlns="http://www.w3.org/2000/svg"
 width="500.000000pt" height="500.000000pt" viewBox="0 0 500.000000 500.000000"
 preserveAspectRatio="xMidYMid meet">
<metadata>
Created by potrace 1.14, written by Peter Selinger 2001-2017
</metadata>
<g transform="translate(0.000000,500.000000) scale(0.100000,-0.100000)"
fill="#000000" stroke="none">
<path d="M0 2500 l0 -2500 2500 0 2500 0 0 2500 0 2500 -2500 0 -2500 0 0
-2500z m1475 1205 l25 -24 0 -761 0 -760 165 0 165 0 0 -35 0 -35 -200 0 -200
0 -1 738 c0 544 -3 746 -12 772 -20 57 -34 60 -319 60 -217 0 -258 2 -258 14
0 8 12 24 26 35 26 20 39 21 306 21 l279 0 24 -25z m2577 14 c133 -28 254
-113 306 -215 49 -96 56 -146 57 -389 0 -300 -17 -371 -111 -473 l-44 -47 30
65 c43 95 53 182 48 425 -4 184 -7 218 -27 273 -55 158 -163 250 -338 287 -54
12 -169 15 -560 15 -336 0 -493 3 -493 10 0 6 11 22 25 35 l24 25 515 0 c340
0 533 -4 568 -11z m-391 -747 c-5 -10 -16 -24 -24 -30 -8 -7 -135 -51 -283
-98 -148 -47 -300 -101 -338 -120 l-70 -34 29 30 c47 49 170 105 375 170 107
34 220 70 250 80 69 24 73 24 61 2z m-1179 -232 c71 -20 68 3 68 -566 0 -502
0 -512 -21 -538 -11 -14 -29 -26 -40 -26 -19 0 -19 13 -19 505 l0 506 -25 24
-24 25 -251 0 c-238 0 -250 1 -250 19 0 22 19 39 57 51 41 12 461 12 505 0z
m996 -537 l-3 -38 453 -5 454 -5 19 -24 c17 -21 19 -42 19 -249 0 -218 -1
-227 -22 -249 -45 -48 -48 -37 -48 171 0 118 -4 206 -11 226 -21 59 -30 60
-509 60 l-430 0 0 53 c0 60 6 72 40 86 39 15 42 13 38 -26z"/>
</g>
</svg>
